<svg width="1097" height="632" viewBox="0 0 1097 632" fill="none" xmlns="http://www.w3.org/2000/svg">
<path d="M82.6535 146.136L82.653 146.137C72.2095 155.37 60.0445 166.765 53.4537 178.42C50.1649 184.236 48.3158 190.029 48.6925 195.591C49.0667 201.118 51.6473 206.548 57.4777 211.659L57.4779 211.66C69.55 222.247 85.4826 229.348 102.25 235.931C105.549 237.227 108.881 238.502 112.22 239.78C125.797 244.977 139.495 250.22 151.574 257.029M82.6535 146.136L151.083 257.9M82.6535 146.136C84.9739 144.082 100.219 132.506 116.04 122.001C123.944 116.752 131.957 111.794 138.543 108.436C141.84 106.756 144.744 105.494 147.08 104.792C148.248 104.44 149.242 104.239 150.052 104.186C150.601 104.149 151.029 104.183 151.355 104.262M82.6535 146.136L92.8347 168.012M151.574 257.029L151.083 257.9M151.574 257.029C151.574 257.029 151.574 257.028 151.574 257.028L151.083 257.9M151.574 257.029C159.584 261.54 163.936 267.099 165.603 273.274C167.261 279.417 166.22 286.01 163.77 292.531C159.408 304.141 150.429 315.888 143.403 325.079C142.561 326.181 141.746 327.247 140.971 328.271C104.383 376.628 72.5525 428.19 45.3526 478.738L45.3524 478.739C43.5727 482.042 38.9641 493.175 33.3553 508.114C27.7584 523.022 21.1936 541.644 15.5048 559.874C9.81259 578.115 5.01095 595.921 2.92381 609.213C1.87785 615.874 1.52861 621.314 2.04942 625.085C2.22713 626.372 2.50052 627.419 2.85444 628.239M151.083 257.9C180.724 274.596 157.527 304.949 142.609 324.471C141.767 325.572 140.952 326.639 140.174 327.667C103.548 376.074 71.691 427.681 44.472 478.265C37.5413 491.13 -10.2834 617.719 3.19089 630.525C3.17561 630.479 3.16102 630.433 3.14708 630.386C2.96429 629.777 2.87299 629.053 2.85444 628.239M2.85444 628.239C3.01996 628.622 3.20309 628.955 3.40229 629.239C3.60575 629.53 3.82622 629.771 4.06689 629.964C0.280068 615.664 47.4902 510.196 52.028 502.871C86.411 447.583 134.382 395.65 183.703 344.652M2.85444 628.239C2.83932 627.575 2.87251 626.851 2.94387 626.08C3.26468 622.615 4.40564 617.759 6.10778 612.006C9.51893 600.477 15.2569 585.11 21.5159 569.546C27.7777 553.975 34.5719 538.181 40.1045 525.789C42.8708 519.593 45.323 514.245 47.2367 510.198C49.1378 506.177 50.5345 503.383 51.1779 502.344L51.1788 502.342C85.6243 446.955 133.664 394.953 182.984 343.957L183.703 344.652M183.703 344.652L182.984 343.957C192.926 333.677 202.97 321.992 209.774 309.859C216.582 297.719 220.077 285.258 217.137 273.361M183.703 344.652C203.627 324.053 224.161 297.618 218.107 273.121M138.236 223.43C93.9017 208.1 69.6006 199.608 92.8347 168.012M138.236 223.43L137.909 224.375C126.835 220.546 116.969 217.129 108.782 213.668C100.607 210.211 94.0085 206.672 89.5214 202.558C84.9969 198.409 82.5777 193.632 82.8937 187.791C83.2056 182.024 86.177 175.377 92.0291 167.419L92.0302 167.418C92.7121 166.494 94.2339 164.825 96.3057 162.657C98.3956 160.47 101.093 157.725 104.168 154.624C106.461 152.312 108.962 149.802 111.581 147.176C115.992 142.75 120.735 137.992 125.365 133.289C132.742 125.795 139.807 118.464 144.751 112.877C147.229 110.077 149.147 107.745 150.306 106.06C150.856 105.261 151.195 104.664 151.355 104.262M138.236 223.43C139.397 223.831 140.566 224.234 141.74 224.639C174.545 235.949 212.116 248.903 218.107 273.121M138.236 223.43L137.909 224.375C139.065 224.774 140.228 225.175 141.397 225.578C157.231 231.038 174.084 236.849 187.973 244.107C202.926 251.922 214.144 261.266 217.137 273.361M92.8347 168.012C94.5827 165.644 102.635 157.566 112.284 147.886C130.761 129.351 155.091 104.944 152.216 103.514L92.8347 168.012ZM151.355 104.262C151.516 104.3 151.653 104.35 151.767 104.407C151.55 104.297 151.462 104.085 151.45 103.972C151.449 103.96 151.449 103.954 151.448 103.954C151.447 103.954 151.443 104.021 151.385 104.181C151.376 104.207 151.366 104.234 151.355 104.262ZM218.107 273.121L217.137 273.361M218.107 273.121L217.137 273.36C217.137 273.361 217.137 273.361 217.137 273.361" stroke="white" stroke-width="2"/>
<path d="M113.748 39.7131L113.747 39.7135C111.113 40.8656 108.272 40.5575 105.399 39.3807C102.536 38.2085 99.5424 36.1371 96.4945 33.5963C92.3797 30.166 88.0277 25.7556 83.6548 21.3241C81.5722 19.2135 79.4848 17.0981 77.4161 15.0816C74.1827 11.935 70.9788 9.01442 67.8565 6.66045C64.7275 4.30132 61.7306 2.55009 58.9142 1.69372C56.1196 0.843953 53.5424 0.884758 51.1633 2.05041C48.7624 3.22677 46.4259 5.61558 44.2686 9.73413L44.2684 9.73437C42.4588 13.1868 42.3414 16.685 43.5803 20.2429C44.832 23.8375 47.4793 27.5153 51.2396 31.2113C58.7619 38.6049 70.501 45.8438 83.4453 52.4301C105.959 63.8856 131.867 73.2365 144.874 77.9314C146.812 78.6308 148.463 79.2268 149.774 79.7111L149.774 79.7111C168.75 86.7208 186.466 97.1511 204.142 107.558C209.238 110.558 214.332 113.557 219.451 116.471L219.451 116.471C256.459 137.547 274.499 140.93 292.878 143.679L292.88 143.68C302.297 145.108 317.224 146.579 335.111 144.329L335.112 144.329C347.51 142.779 362.272 140.899 374.683 131.672C381.426 126.647 385.629 120.816 387.664 117.993L387.707 117.933C387.707 117.933 387.707 117.932 387.708 117.932C390.509 114.025 392.681 110.081 394.041 107.085C394.325 106.459 394.571 105.879 394.779 105.353C394.737 105.406 394.694 105.46 394.65 105.515C394.495 105.711 394.331 105.918 394.158 106.136C392.369 108.387 389.726 111.646 385.968 115.492L385.968 115.492L385.709 115.756C382.658 118.874 378.652 122.965 373.756 126.33C362.461 134.118 349.62 136.033 342.733 136.992M113.748 39.7131L342.596 136.002M113.748 39.7131C114.286 39.4769 114.69 39.0613 114.997 38.6213C115.306 38.1785 115.559 37.6505 115.777 37.0972C116.209 35.9971 116.562 34.6311 116.906 33.2985C117.257 31.937 117.604 30.6016 118.032 29.4536C118.467 28.2834 118.936 27.4574 119.449 27.0071L113.748 39.7131ZM342.733 136.992L342.596 136.002M342.733 136.992C342.734 136.992 342.734 136.992 342.734 136.992L342.596 136.002M342.733 136.992C330.355 138.721 320.96 137.448 309.712 135.924C309.344 135.874 308.973 135.824 308.601 135.773L308.6 135.773C295.9 134.043 284.176 131.086 273.169 126.898M342.596 136.002C330.354 137.711 321.08 136.455 309.814 134.928C309.456 134.88 309.097 134.831 308.735 134.782C296.106 133.062 284.456 130.122 273.525 125.963M273.169 126.898C273.169 126.898 273.169 126.898 273.17 126.898L273.525 125.963M273.169 126.898C262.14 122.71 251.86 117.295 242.002 110.657L241.999 110.655C240.223 109.45 229.392 101.843 219.091 94.4392L219.09 94.4386C213.95 90.7358 208.928 87.0718 205.233 84.2715C203.387 82.873 201.86 81.6812 200.813 80.8042C200.293 80.369 199.87 79.9934 199.581 79.7001C199.442 79.5593 199.298 79.4017 199.191 79.2438C199.141 79.17 199.06 79.0401 199.009 78.8736C198.965 78.7291 198.876 78.326 199.152 77.9367C201.306 74.901 204.576 72.9812 208.108 71.4938C209.879 70.7476 211.746 70.0987 213.604 69.4741C213.987 69.3451 214.37 69.2173 214.752 69.0898C216.229 68.5966 217.688 68.1092 219.109 67.5827C222.698 66.2532 225.873 64.7403 228.135 62.4807C230.353 60.2653 231.757 57.2668 231.675 52.7953C231.602 48.8561 230.363 45.8572 228.353 43.5408C226.329 41.2065 223.469 39.5054 220.075 38.2788C213.262 35.8167 204.553 35.3334 196.893 35.2898C193.429 35.2749 190.237 35.4944 187.073 35.712C185.635 35.8108 184.204 35.9092 182.755 35.9851C178.146 36.2484 173.462 36.2736 168.19 35.2948M273.169 126.898L273.525 125.963M273.525 125.963C262.572 121.804 252.359 116.426 242.56 109.828L168.19 35.2948M168.19 35.2948C162.743 34.2861 158.341 32.1344 154.176 29.997C153.786 29.7972 153.399 29.5974 153.013 29.3982C149.243 27.4521 145.605 25.5748 141.34 24.4797L141.339 24.4793L141.157 24.4325C136.646 23.2666 133.064 22.341 129.692 22.4636C126.363 22.5846 123.157 23.7598 119.45 27.0066L168.19 35.2948ZM395.588 102.791C395.615 102.761 395.641 102.732 395.667 102.704C395.726 102.821 395.851 102.993 396.096 103.092L396.467 102.163L396.11 103.097C396.284 103.164 396.437 103.159 396.541 103.14C396.533 103.181 396.524 103.223 396.514 103.266L395.588 102.791Z" stroke="white" stroke-width="2"/>
<path d="M333.385 336.572C330.097 343.562 326.744 350.835 323.347 358.413C319.928 365.991 316.793 373.46 313.875 380.841L333.385 336.572ZM333.385 336.572C334.561 330.758 334.648 326.186 333.668 322.898C332.689 319.61 331.295 317.084 329.444 315.32L333.385 336.572ZM364.489 368.114L364.488 368.117L354.899 390.118L353.986 389.711C353.986 389.711 353.985 389.712 353.985 389.712C350.856 396.736 348.613 402.996 347.224 408.509C346.64 410.768 346.352 412.625 346.432 414.021C346.51 415.382 346.979 416.694 348.316 417.133C349.403 417.49 350.721 417.208 352.106 416.629C353.531 416.033 355.232 415.032 357.202 413.657C364.056 409.152 371.286 403.234 378.869 395.934C386.466 388.644 393.994 380.853 401.477 372.585C408.957 364.32 416.154 355.967 423.047 347.504C429.931 339.051 436.056 331.379 441.397 324.49C446.732 317.609 451.154 311.879 454.641 307.303C456.38 305.032 457.754 303.285 458.763 302.061C459.268 301.447 459.675 300.973 459.988 300.633C460.144 300.462 460.27 300.332 460.368 300.238C460.475 300.136 460.52 300.103 460.519 300.104L460.542 300.088L460.565 300.072C461.106 299.665 461.969 299.401 463.318 299.401C464.609 299.401 465.798 299.707 466.918 300.306C468.017 300.893 468.843 301.699 469.448 302.701C469.894 303.468 469.951 304.552 469.252 306.136C468.675 307.261 466.876 310.283 463.778 315.201C460.678 320.123 456.53 326.269 451.289 333.641C446.051 341.008 439.964 349.14 432.982 358.058C426.003 366.971 418.479 376.083 410.453 385.393C402.413 394.692 393.939 403.753 385.03 412.553L385.029 412.554C376.141 421.356 367.148 429.223 358.072 436.179C356.515 437.166 354.233 438.667 351.248 440.678L351.244 440.681C348.298 442.688 344.802 444.598 340.771 446.409L340.767 446.411C336.764 448.23 332.452 449.647 327.848 450.723C323.303 451.764 318.878 451.996 314.545 451.427C311.214 450.866 308.668 449.597 306.826 447.656L306.823 447.652C304.929 445.678 303.606 443.047 302.853 439.677L302.852 439.676C302.096 436.316 301.9 432.394 302.285 427.896C302.673 423.396 303.449 418.519 304.595 413.328L305.366 409.838L302.896 412.421C298.677 416.834 293.476 421.304 287.304 425.851C281.137 430.395 274.71 434.442 268.065 438.013C261.391 441.589 254.94 444.576 248.668 446.998C242.411 449.414 237.149 450.682 232.837 450.851C225.957 451.043 220.097 450.076 215.209 448.011C210.274 445.927 206.287 443.155 203.198 439.688C200.086 436.195 197.827 432.287 196.412 427.957C194.985 423.59 194.284 419.231 194.284 414.876C194.284 408.771 195.249 401.71 197.174 393.705C199.096 385.714 201.95 377.43 205.697 368.831C209.46 360.267 214.177 351.762 219.872 343.361C225.557 334.974 232.195 327.168 239.83 319.944L239.831 319.943C247.434 312.728 255.946 306.462 265.391 301.167C274.804 295.89 285.281 292.18 296.831 290.064L296.835 290.064C303.954 288.726 310.255 288.346 315.752 288.921L315.753 288.921C321.3 289.5 326.06 290.781 330.117 292.745C334.181 294.735 337.503 297.306 340.125 300.495C342.782 303.725 344.749 307.113 346.08 310.683L346.864 312.787L347.903 310.796C350.23 306.339 352.315 302.472 354.161 299.172C356.007 295.892 357.496 293.389 358.632 291.653L358.649 291.628L358.664 291.601C361.718 286.246 364.857 282.434 367.992 280.108C371.222 277.734 374.192 276.144 376.862 275.316C379.594 274.469 381.889 274.155 383.734 274.332C385.842 274.571 387.305 274.686 388.128 274.686C391.481 274.686 394.147 275.378 396.159 276.699C398.29 278.099 399.896 279.658 400.956 281.339C402.044 283.084 402.729 284.889 402.99 286.759C403.263 288.731 403.299 290.321 403.146 291.548C402.382 295.11 400.68 299.675 397.985 305.261C395.269 310.887 392.118 317.081 388.529 323.867C384.94 330.653 381.002 337.876 376.737 345.536C372.465 353.208 368.39 360.749 364.489 368.114ZM255.681 428.135L255.694 428.134L255.708 428.134C259.182 427.927 263.541 426.559 268.745 424.121L268.747 424.121C273.961 421.668 279.355 418.319 284.929 414.106C290.508 409.889 295.927 404.995 301.209 399.429C306.509 393.842 311.021 387.813 314.742 381.34L314.778 381.277L314.805 381.209C317.717 373.841 320.847 366.386 324.259 358.824L324.26 358.822C327.654 351.25 331.004 343.983 334.29 336.998L334.342 336.889L334.366 336.771C335.554 330.895 335.676 326.132 334.627 322.612C333.615 319.217 332.15 316.517 330.134 314.596L330.129 314.592C328.155 312.733 325.924 311.53 323.381 310.988L323.374 310.987C321.034 310.506 319.117 310.251 317.67 310.248C313.877 310.044 309.486 311.68 304.571 314.92C299.643 318.169 294.452 322.55 288.977 328.003L288.976 328.004C283.498 333.482 278.049 339.72 272.584 346.737C267.116 353.757 262.151 360.975 257.667 368.368L257.667 368.369C253.183 375.783 249.373 383.051 246.262 390.173C243.124 397.306 241.193 403.673 240.502 409.222L240.502 409.222C239.81 414.8 240.483 419.409 242.691 422.98L242.693 422.984C245.038 426.736 249.518 428.336 255.681 428.135Z" stroke="white" stroke-width="2"/>
<path d="M470.569 430.598L469.575 430.71C469.575 430.71 469.575 430.71 469.575 430.709C468.229 418.72 466.427 407.693 464.214 397.628C461.973 387.555 459.886 378.837 457.952 371.471L457.86 371.121L458.013 370.794C459.558 367.486 461.06 364.244 462.517 361.047C463.975 357.847 465.459 354.596 467.03 351.279L467.363 350.576L468.126 350.725C474.109 351.896 481.186 353.003 489.317 354.068L489.319 354.069C497.447 355.152 506.079 355.825 515.282 356.107C524.471 356.389 533.746 356.064 543.107 355.089L543.11 355.089C552.439 354.138 561.199 352.152 569.369 349.177C577.521 346.209 584.849 342.082 591.359 336.819C597.81 331.602 602.743 324.802 606.191 316.411C607.295 313.502 607.29 311.072 606.364 309.052C605.391 306.925 603.955 305.513 602.084 304.749C600.238 304.004 598.152 304.101 595.723 305.173L595.72 305.174C593.388 306.196 591.355 308.4 589.671 311.953C586.632 318.616 581.199 323.587 573.432 326.868C565.741 330.117 556.753 332.226 546.484 333.192C536.234 334.155 525.206 334.264 513.423 333.477L469.296 509.653M470.569 430.598C471.919 442.64 472.703 455.356 472.899 468.748C473.095 482.14 472.224 495.836 470.286 509.794M470.569 430.598C469.219 418.578 467.412 407.516 465.191 397.413L470.569 430.598ZM470.286 509.794L469.296 509.651C469.296 509.652 469.296 509.652 469.296 509.653M470.286 509.794L469.295 509.657C469.296 509.655 469.296 509.654 469.296 509.653M470.286 509.794C467.368 529.98 463.492 547.117 458.636 561.184C453.78 575.251 448.445 586.813 442.631 595.828C436.817 604.843 430.786 611.833 424.58 616.798M469.296 509.653C466.384 529.797 462.52 546.868 457.691 560.858C452.852 574.876 447.548 586.359 441.791 595.286C436.017 604.239 430.054 611.138 423.955 616.017M424.58 616.798L423.957 616.015C423.956 616.016 423.956 616.016 423.955 616.017M424.58 616.798C418.374 621.741 412.451 625.333 406.811 627.576L423.955 616.017M424.58 616.798L423.955 616.017M523.648 205.087C526.535 204.914 528.972 205.511 530.993 206.824C533.068 208.188 534.645 209.948 535.74 212.116C536.81 214.278 537.28 216.669 537.096 219.309C536.911 221.965 536.173 224.382 534.906 226.573C526.559 239.977 517.517 255.381 507.803 272.741L507.803 272.741C498.083 290.132 488.277 308.72 478.384 328.549L477.763 329.793L479.141 329.985C490.227 331.535 501.661 332.713 513.422 333.477L523.648 205.087ZM454.327 504.192L454.335 504.148L454.34 504.102C456.284 484.811 456.199 466.791 454.054 450.004C451.913 433.249 448.591 418.052 444.104 404.395L443.298 401.942L442.242 404.298C434.66 421.203 427.428 437.891 420.543 454.406C413.634 470.926 407.531 486.664 402.19 501.619C396.848 516.574 392.377 530.445 388.777 543.187C385.176 555.934 382.747 567.044 381.476 576.511C380.205 585.975 380.298 593.591 381.782 599.302L381.783 599.306C382.545 602.196 383.773 604.52 385.517 606.207C387.27 607.903 389.484 608.894 392.102 609.211L392.112 609.212C403.017 610.414 412.05 607.833 419.092 601.401C426.014 595.077 431.664 586.629 436.084 576.162L436.084 576.161C440.489 565.708 444.034 554.106 446.767 541.338L446.767 541.337C449.468 528.615 451.995 516.219 454.327 504.192Z" stroke="white" stroke-width="2"/>
<path d="M666.763 336.572C663.475 343.562 660.121 350.835 656.725 358.413C653.306 365.991 650.17 373.46 647.252 380.841L666.763 336.572ZM666.763 336.572C667.939 330.758 668.026 326.186 667.046 322.898C666.066 319.61 664.672 317.084 662.822 315.32L666.763 336.572ZM697.867 368.114L697.865 368.117L688.277 390.118L687.363 389.711C687.363 389.711 687.363 389.712 687.363 389.712C684.234 396.736 681.991 402.996 680.601 408.508C680.017 410.768 679.73 412.625 679.809 414.021C679.887 415.382 680.357 416.694 681.693 417.133C682.781 417.49 684.099 417.208 685.484 416.629C686.909 416.032 688.61 415.032 690.58 413.657C697.434 409.152 704.663 403.234 712.247 395.934C719.843 388.644 727.372 380.853 734.855 372.585C742.335 364.32 749.532 355.967 756.425 347.504C763.309 339.051 769.433 331.379 774.774 324.49C780.109 317.609 784.532 311.879 788.019 307.303C789.757 305.032 791.131 303.285 792.14 302.061C792.646 301.447 793.053 300.973 793.365 300.633C793.521 300.462 793.647 300.332 793.746 300.238C793.852 300.136 793.898 300.103 793.897 300.104L793.92 300.088L793.942 300.072C794.483 299.665 795.346 299.4 796.695 299.4C797.987 299.4 799.175 299.707 800.296 300.306C801.394 300.893 802.22 301.699 802.826 302.701C803.271 303.468 803.328 304.552 802.63 306.136C802.053 307.261 800.254 310.283 797.156 315.201C794.055 320.123 789.907 326.269 784.666 333.641C779.429 341.008 773.341 349.14 766.359 358.058C759.38 366.971 751.856 376.083 743.83 385.393C735.791 394.692 727.317 403.753 718.408 412.553L718.407 412.554C709.518 421.356 700.525 429.223 691.449 436.179C689.892 437.166 687.61 438.667 684.626 440.678L684.622 440.681C681.675 442.688 678.18 444.598 674.149 446.409L674.145 446.411C670.142 448.23 665.83 449.647 661.225 450.723C656.681 451.764 652.256 451.996 647.923 451.427C644.591 450.866 642.046 449.597 640.204 447.656L640.2 447.652C638.306 445.678 636.983 443.047 636.23 439.677L636.23 439.676C635.474 436.316 635.277 432.394 635.663 427.896C636.05 423.396 636.826 418.519 637.973 413.328L638.743 409.838L636.273 412.421C632.055 416.834 626.853 421.304 620.681 425.851C614.514 430.395 608.087 434.442 601.443 438.013C594.769 441.589 588.317 444.576 582.046 446.998C575.788 449.414 570.526 450.682 566.215 450.851C559.334 451.043 553.475 450.076 548.586 448.011C543.652 445.927 539.664 443.155 536.575 439.688C533.464 436.195 531.204 432.287 529.789 427.957C528.362 423.59 527.661 419.231 527.661 414.876C527.661 408.771 528.626 401.71 530.552 393.705C532.474 385.714 535.327 377.43 539.075 368.831C542.838 360.267 547.554 351.762 553.249 343.361C558.934 334.974 565.572 327.168 573.207 319.944L573.208 319.943C580.812 312.728 589.324 306.462 598.769 301.167C608.181 295.89 618.658 292.18 630.208 290.064L630.213 290.064C637.331 288.726 643.633 288.346 649.13 288.921L649.13 288.921C654.677 289.499 659.437 290.781 663.494 292.745C667.559 294.735 670.881 297.306 673.503 300.495C676.159 303.725 678.127 307.113 679.457 310.683L680.242 312.787L681.281 310.796C683.607 306.339 685.693 302.471 687.538 299.172C689.385 295.892 690.874 293.389 692.01 291.653L692.026 291.628L692.042 291.601C695.095 286.246 698.235 282.434 701.37 280.108C704.599 277.734 707.569 276.144 710.239 275.316C712.972 274.469 715.267 274.155 717.112 274.332C719.219 274.571 720.682 274.686 721.506 274.686C724.859 274.686 727.524 275.378 729.536 276.699C731.668 278.099 733.273 279.658 734.334 281.338C735.421 283.084 736.106 284.889 736.368 286.759C736.64 288.731 736.677 290.321 736.524 291.548C735.759 295.11 734.058 299.675 731.362 305.261C728.647 310.887 725.495 317.081 721.906 323.867C718.318 330.653 714.38 337.876 710.115 345.536C705.843 353.208 701.767 360.749 697.867 368.114ZM589.058 428.135L589.072 428.134L589.085 428.134C592.559 427.927 596.919 426.559 602.123 424.121L602.124 424.121C607.339 421.668 612.733 418.319 618.306 414.106C623.886 409.889 629.305 404.995 634.586 399.429C639.887 393.842 644.399 387.812 648.119 381.34L648.156 381.277L648.182 381.209C651.095 373.84 654.224 366.386 657.636 358.824L657.637 358.822C661.031 351.25 664.382 343.983 667.668 336.998L667.719 336.889L667.743 336.771C668.931 330.895 669.053 326.132 668.004 322.612C666.993 319.217 665.527 316.517 663.511 314.596L663.507 314.592C661.532 312.733 659.301 311.53 656.759 310.988L656.752 310.987C654.412 310.506 652.494 310.251 651.047 310.248C647.255 310.044 642.863 311.68 637.948 314.92C633.02 318.169 627.83 322.55 622.354 328.003L622.353 328.004C616.876 333.482 611.426 339.72 605.961 346.737C600.494 353.757 595.529 360.975 591.045 368.368L591.044 368.369C586.561 375.783 582.751 383.051 579.639 390.173C576.501 397.306 574.57 403.673 573.879 409.221L573.879 409.222C573.188 414.8 573.86 419.409 576.068 422.98L576.07 422.984C578.416 426.736 582.896 428.336 589.058 428.135Z" stroke="white" stroke-width="2"/>
<path d="M795.808 253.432L795.802 253.432C791.378 253.618 787.571 255.181 784.257 258.14C780.946 261.155 778.161 264.704 775.882 268.794C773.594 272.899 771.93 277.125 770.886 281.496C769.83 285.911 769.418 289.481 769.604 292.258L769.606 292.281L769.606 292.304C769.8 301.516 771.823 308.123 775.48 312.334C779.24 316.664 783.6 319.461 788.523 320.755C793.536 322.071 798.559 322.367 803.557 321.604C808.661 320.826 812.607 319.86 815.425 318.745L815.443 318.738L815.461 318.732C818.383 317.703 820.963 317.843 822.98 319.488L822.986 319.493C824.058 320.382 824.564 321.558 824.402 322.933C824.251 324.217 823.53 325.576 822.423 326.99C821.863 327.738 820.475 329.871 818.255 333.462L818.253 333.466C816.023 337.037 813.355 341.636 810.268 347.244C807.187 352.863 803.975 359.201 800.695 366.26C797.423 373.302 794.564 380.495 792.159 387.838C789.758 395.172 787.964 402.48 786.819 409.804C785.679 417.094 785.684 423.771 786.813 429.847C787.956 435.875 790.529 441.034 794.574 445.353C798.583 449.633 804.439 452.759 812.279 454.666C820.426 456.558 828.931 456.139 837.813 453.378C846.731 450.578 855.73 446.265 864.787 440.385C873.856 434.498 882.847 427.393 891.737 419.088C900.642 410.77 909.112 402.061 917.147 392.962C925.191 383.853 932.69 374.811 939.665 365.793C946.646 356.767 952.644 348.596 957.682 341.234C962.729 333.86 966.746 327.714 969.738 322.792L969.739 322.791C971.249 320.314 972.393 318.355 973.181 316.899C973.576 316.17 973.876 315.578 974.086 315.116C974.3 314.648 974.394 314.372 974.422 314.243C974.985 310.892 974.612 308.468 973.544 306.829C972.394 305.064 970.95 303.95 969.172 303.458C967.317 302.945 965.496 302.983 963.639 303.594C961.864 304.207 960.567 305.335 959.705 307.039L959.703 307.044C955.992 314.29 950.866 322.392 944.335 331.347C937.828 340.322 930.624 349.358 922.748 358.5C914.876 367.637 906.742 376.577 898.391 385.321L898.39 385.322C890.013 394.069 882.089 401.754 874.595 408.374L874.594 408.375C867.088 414.986 860.523 420.262 854.838 424.169C852.003 426.136 849.544 427.585 847.473 428.495C845.439 429.388 843.643 429.823 842.187 429.583C839.837 429.256 837.961 428.243 836.683 426.485C835.424 424.753 834.828 422.412 834.783 419.574C834.694 413.99 835.832 407.327 838.179 399.604C840.524 391.892 843.697 383.556 847.695 374.598C851.664 365.657 855.656 357.236 859.649 349.36C863.637 341.493 867.171 334.773 870.295 329.224M795.808 253.432L871.168 329.713M795.808 253.432C799.71 253.244 802.819 254.081 805.203 255.849C807.474 257.534 808.718 260.375 808.718 264.649C808.718 266.598 808.052 269.465 806.605 273.333M795.808 253.432L806.605 273.333M870.295 329.224C870.296 329.224 870.296 329.223 870.296 329.223L871.168 329.713M870.295 329.224C870.295 329.225 870.295 329.225 870.295 329.225L871.168 329.713M870.295 329.224C873.376 323.713 875.34 320.312 876.154 319.113L876.161 319.103L876.161 319.103C877.406 317.316 878.298 314.985 878.759 312.092C879.218 309.216 879.089 306.513 878.35 303.947M871.168 329.713C874.26 324.182 876.198 320.829 876.981 319.675C878.331 317.737 879.268 315.255 879.747 312.25C880.226 309.245 880.095 306.392 879.311 303.67M878.35 303.947C878.351 303.948 878.351 303.948 878.351 303.949L879.311 303.67M878.35 303.947C877.62 301.432 876.267 299.312 874.279 297.588C872.414 295.97 869.598 295.162 865.676 295.349M878.35 303.947L879.311 303.67M879.311 303.67C878.527 300.97 877.069 298.684 874.935 296.833C872.801 294.982 869.687 294.154 865.615 294.35M806.605 273.333C805.151 277.194 803.655 281.075 802.116 284.934C799.985 289.392 797.745 294.134 795.418 299.179L795.19 299.673L795.481 300.133C796.328 301.472 797.762 302.371 799.599 302.921C801.435 303.472 803.759 303.702 806.536 303.647C812.02 303.558 818.298 302.92 825.322 301.738C832.314 300.562 839.506 299.32 846.874 297.947M806.605 273.333L865.615 294.35M846.874 297.947C846.873 297.947 846.873 297.947 846.872 297.947L846.692 296.963L846.875 297.946C846.875 297.947 846.874 297.947 846.874 297.947ZM846.874 297.947C854.227 296.602 860.478 295.737 865.676 295.349M865.676 295.349C865.68 295.348 865.685 295.348 865.689 295.348L865.615 294.35M865.676 295.349C865.672 295.349 865.667 295.349 865.663 295.349L865.615 294.35" stroke="white" stroke-width="2"/>
<path d="M990.241 335.061L990.242 335.06C994.879 326.285 997.743 319.359 998.873 314.249C999.044 313.037 998.99 311.457 998.715 309.469C998.453 307.575 997.766 305.721 996.671 303.881C995.595 302.109 993.986 300.567 991.779 299.288C989.623 298.039 986.898 297.285 983.519 297.093C982.704 297.091 981.259 297 979.239 296.828L979.228 296.827L979.228 296.827C977.382 296.648 975.084 296.962 972.347 297.81C969.686 298.635 966.721 300.264 963.493 302.743C960.342 305.164 957.219 308.924 954.143 314.106C952.019 317.77 948.673 323.874 944.125 332.405L944.124 332.407C939.562 340.922 934.78 350.616 929.734 361.47C924.692 372.314 919.889 383.638 915.346 395.463L915.345 395.465C910.789 407.268 907.563 418.12 905.639 428.045C903.717 437.957 903.584 446.251 905.194 452.945L905.194 452.949C905.973 456.24 907.398 458.751 909.424 460.554C911.45 462.359 914.151 463.52 917.59 463.989C922.121 464.561 926.655 464.265 931.2 463.139C935.803 461.999 940.053 460.517 943.975 458.696L943.979 458.694C947.924 456.883 951.407 454.969 954.474 452.953L954.478 452.95C957.584 450.93 959.803 449.443 961.132 448.48C970.229 441.509 979.809 433.537 989.893 424.518C999.965 415.49 1009.86 406.246 1019.56 396.742C1029.26 387.235 1038.58 377.771 1047.5 368.373C1056.42 358.95 1064.27 350.423 1071.05 342.769C1077.84 335.109 1083.37 328.694 1087.63 323.566C1089.76 321.001 1091.42 318.933 1092.62 317.366C1093.82 315.797 1094.51 314.792 1094.77 314.301C1095.46 312.723 1095.41 311.655 1094.96 310.863C1094.35 309.863 1093.53 309.058 1092.43 308.472C1091.31 307.873 1090.12 307.567 1088.83 307.567C1087.48 307.567 1086.62 307.831 1086.08 308.238L1086.06 308.249L1086.05 308.26C1085.98 308.308 1085.76 308.488 1085.36 308.868C1084.98 309.229 1084.46 309.727 1083.82 310.367C1082.54 311.644 1080.76 313.467 1078.49 315.838L1077.77 315.146L1078.49 315.838C1073.92 320.607 1068.15 326.618 1061.16 333.891C1054.16 341.17 1046.25 349.19 1037.4 357.927C1028.56 366.663 1019.58 375.378 1010.45 384.007M990.241 335.061L950.515 428.834L950.435 429.831C953.198 430.055 956.595 428.719 960.528 426.192L960.538 426.185L960.548 426.178C967.187 421.687 974.883 415.695 983.632 408.211C992.378 400.73 1001.32 392.662 1010.45 384.007M990.241 335.061C985.587 343.893 980.452 353.291 974.817 363.279C969.168 373.289 963.782 383.451 958.636 393.743L958.635 393.744M990.241 335.061L958.635 393.744M1010.45 384.007L1009.77 383.281L1010.45 384.007C1010.45 384.007 1010.45 384.007 1010.45 384.007ZM958.635 393.744C953.477 404.083 949.81 413.36 947.654 421.59L958.635 393.744ZM1026.67 254.91L1026.67 254.911C1026.21 258.294 1025.12 261.673 1023.42 265.073L1023.42 265.075C1021.72 268.498 1019.68 271.418 1017.34 273.864C1014.97 276.32 1012.49 278.185 1009.91 279.476C1007.3 280.771 1004.62 281.517 1001.84 281.703C999.08 281.888 996.533 281.437 994.197 280.342C989.484 277.982 986.487 273.731 985.271 267.358L985.271 267.357C984.054 261.023 985.028 254.447 988.237 247.621C989.938 244.202 991.97 241.285 994.309 238.84C996.658 236.386 999.136 234.522 1001.74 233.231C1004.35 231.936 1007.03 231.189 1009.81 231.003C1012.56 230.818 1015.08 231.267 1017.44 232.359C1019.81 233.63 1021.77 235.408 1023.33 237.709C1024.91 240.031 1025.97 242.605 1026.53 245.483C1027.09 248.363 1027.14 251.517 1026.67 254.91Z" stroke="white" stroke-width="2"/>
</svg>
